<?xml version="1.0" encoding="utf-8"?>
<!-- Generator: Adobe Illustrator 21.1.0, SVG Export Plug-In . SVG Version: 6.00 Build 0)  -->
<svg version="1.1" id="Layer_1" xmlns="http://www.w3.org/2000/svg" xmlns:xlink="http://www.w3.org/1999/xlink" x="0px" y="0px"
	 viewBox="0 0 81.1 127.5" style="enable-background:new 0 0 81.1 127.5;" xml:space="preserve">
<style type="text/css">
	.st0{fill:#3F59A7;}
</style>
<path class="st0" d="M80.5,82.5c-0.8-0.7-2-0.6-2.7,0.2L64.7,98.8l-8.4-6.9c-0.8-0.7-2-0.5-2.7,0.3S53.2,94.3,54,95l9.8,8.1
	c0.3,0.3,0.8,0.4,1.2,0.4c0.5,0,1.1-0.2,1.4-0.7l14.3-17.5C81.4,84.5,81.3,83.2,80.5,82.5z M67.2,115.7c-1,0-1.9,0.9-1.9,2
	c0,3.3-2.5,5.9-5.7,5.9H9.5c-3.1,0-5.7-2.6-5.7-5.9V9.8c0-3.3,2.5-5.9,5.7-5.9h50.2c3.1,0,5.7,2.6,5.7,5.9v60.3c0,1.1,0.8,2,1.9,2
	s1.9-0.9,1.9-2V36.5c1.4-0.3,2.5-1.6,2.5-3.2v-8.6c0-1.6-1.1-2.9-2.5-3.2V9.8c0-5.4-4.2-9.8-9.5-9.8H9.5C4.2,0,0,4.4,0,9.8v107.8
	c0,5.4,4.2,9.8,9.5,9.8h50.2c4.8,0,8.8-3.7,9.4-8.6c0.1-0.2,0.1-0.4,0.1-0.6v-0.7C69.1,116.6,68.2,115.7,67.2,115.7z M44,10
	c1,0,1.9-0.9,1.9-2s-0.8-2-1.9-2H25.1c-1,0-1.9,0.9-1.9,2s0.8,2,1.9,2H44z M29.3,116.8c0,3,2.4,5.5,5.3,5.5c2.9,0,5.3-2.5,5.3-5.5
	c0-3-2.4-5.5-5.3-5.5C31.6,111.3,29.3,113.8,29.3,116.8z M36,116.8c0,0.8-0.7,1.5-1.5,1.5c-0.8,0-1.5-0.7-1.5-1.5s0.7-1.5,1.5-1.5
	C35.4,115.2,36,115.9,36,116.8z M57.1,71.9c1.2,0,2.1-1,2.1-2.2V25.7c0-3.7-3.4-6.9-7.2-6.9H17.8c-4,0-7.2,3.4-7.2,7.5v73.5
	c0,4.2,3.2,7.5,7.2,7.5h29.8c1.2,0,2.1-1,2.1-2.2s-0.9-2.2-2.1-2.2H17.8c-1.7,0-3.1-1.4-3.1-3.2V26.4c0-1.8,1.4-3.2,3.1-3.2H52
	c1.8,0,3.1,1.5,3.1,2.5v44.1C55.1,71,56,71.9,57.1,71.9z"/>
</svg>
